<svg id="svg" version="1.1" xmlns="http://www.w3.org/2000/svg" xmlns:xlink="http://www.w3.org/1999/xlink" width="400" height="200" viewBox="100, 100, 200, 200"><g id="svgg"><path id="path0" d="M348.196 141.371 C 347.525 141.780,346.778 142.684,346.535 143.381 C 345.967 145.011,345.967 165.207,346.536 182.422 C 346.766 189.404,347.004 205.137,347.064 217.383 C 347.192 243.241,347.215 243.465,350.442 249.995 C 355.242 259.707,362.709 262.749,377.269 260.924 C 390.784 259.229,396.375 255.730,398.306 247.760 C 399.852 241.376,399.165 162.337,397.423 146.139 C 397.055 142.719,394.621 141.217,391.020 142.186 C 387.937 143.016,388.076 141.137,388.845 171.604 C 389.721 206.340,389.586 242.879,388.571 245.909 C 385.993 253.595,366.744 255.968,360.906 249.319 C 357.037 244.911,356.553 241.777,356.608 221.484 C 356.639 209.919,356.474 202.572,356.064 197.266 C 355.633 191.696,355.474 183.527,355.472 166.875 C 355.468 141.599,355.536 142.275,352.916 141.180 C 351.111 140.426,349.649 140.485,348.196 141.371 M315.325 141.663 C 314.404 142.116,312.978 143.883,310.210 148.001 C 302.901 158.873,300.713 163.069,294.942 177.288 C 291.143 186.647,291.261 186.390,286.263 196.118 C 279.395 209.487,278.610 214.763,283.300 216.050 C 284.493 216.378,288.913 216.447,298.984 216.297 L 313.008 216.087 312.750 221.422 C 311.676 243.697,311.975 258.145,313.541 259.596 C 315.469 261.383,319.221 261.174,321.099 259.174 L 322.001 258.214 321.542 251.665 C 320.815 241.286,320.932 237.264,322.508 218.496 C 322.731 215.845,322.969 215.641,325.861 215.630 C 332.254 215.607,332.172 208.240,325.774 207.878 L 322.938 207.718 323.189 204.543 C 324.192 191.861,324.286 188.476,324.104 171.541 C 323.909 153.413,323.431 146.172,322.237 143.290 C 321.390 141.245,317.859 140.413,315.325 141.663 M313.897 198.970 C 313.582 203.667,313.255 207.578,313.172 207.661 C 312.613 208.220,291.680 208.289,291.894 207.731 C 292.021 207.401,292.509 205.842,292.978 204.266 C 293.447 202.691,294.268 200.427,294.803 199.236 C 295.337 198.045,297.352 193.291,299.281 188.672 C 303.829 177.777,307.520 170.152,311.251 163.941 L 314.258 158.937 314.364 174.683 C 314.437 185.464,314.290 193.123,313.897 198.970 " stroke="none" fill="#ec5c6c" fill-rule="evenodd"></path><path id="path1" d="M178.516 104.793 C 176.746 105.705,176.607 106.619,177.147 113.835 L 177.641 120.443 163.774 136.491 C 156.147 145.317,144.811 158.469,138.583 165.717 L 127.259 178.895 125.721 177.578 C 116.221 169.447,101.884 172.107,96.696 182.965 C 89.265 198.519,99.145 219.593,115.425 222.913 C 132.629 226.420,143.039 206.094,133.632 187.358 L 131.698 183.504 138.407 175.732 L 145.117 167.960 146.012 169.039 C 159.373 185.152,163.006 215.141,153.808 233.398 C 136.968 266.828,91.594 255.061,76.030 213.228 C 57.740 164.064,97.083 126.187,134.666 156.778 C 138.552 159.942,137.512 160.237,142.369 154.593 C 147.246 148.926,147.079 149.775,143.848 147.071 C 105.643 115.100,58.503 138.414,58.545 189.258 C 58.587 238.738,102.918 278.148,141.230 262.764 C 175.125 249.155,182.850 195.845,156.083 160.264 L 154.069 157.587 168.215 141.196 L 182.361 124.805 189.608 124.609 C 197.839 124.388,198.594 124.111,198.594 121.317 C 198.594 118.746,197.791 118.359,192.457 118.359 C 187.941 118.359,187.793 118.333,188.416 117.645 C 190.908 114.891,188.005 111.795,183.986 112.922 C 183.512 113.055,183.357 112.440,183.165 109.638 C 182.856 105.155,181.187 103.416,178.516 104.793 M0.781 147.070 L 0.781 153.516 10.742 153.516 L 20.703 153.516 20.699 189.160 C 20.695 225.937,20.509 231.564,19.117 237.005 C 17.276 244.205,12.855 247.961,4.522 249.403 C 2.604 249.734,0.988 250.054,0.929 250.113 C 0.812 250.230,1.866 258.618,2.185 260.111 C 2.381 261.022,2.447 261.036,5.392 260.782 C 19.308 259.579,28.761 252.597,32.388 240.843 C 34.555 233.818,34.517 234.726,34.667 185.840 L 34.805 140.625 17.793 140.625 L 0.781 140.625 0.781 147.070 M199.219 141.737 C 195.275 143.024,191.658 146.053,189.864 149.571 C 189.414 150.451,188.787 151.172,188.469 151.172 C 187.427 151.172,187.617 246.297,188.665 249.690 C 189.709 253.069,192.035 256.213,194.914 258.136 C 199.293 261.060,198.626 260.991,221.351 260.859 L 241.602 260.742 244.959 259.540 C 262.297 253.332,270.605 237.145,266.458 217.652 C 264.584 208.847,260.656 202.378,254.659 198.223 L 253.134 197.165 255.235 194.896 C 262.687 186.846,264.933 173.557,260.974 160.938 C 258.377 152.661,250.588 145.252,241.211 142.139 C 237.371 140.864,202.905 140.534,199.219 141.737 M238.380 156.181 C 251.772 161.588,252.571 183.286,239.606 189.473 C 236.096 191.149,233.331 191.381,216.699 191.394 L 201.953 191.406 201.953 174.023 C 201.953 157.045,201.972 156.622,202.750 155.843 C 204.060 154.534,235.028 154.827,238.380 156.181 M56.181 160.011 C 50.841 162.228,46.957 192.510,50.262 206.152 C 50.437 206.873,50.744 207.031,51.968 207.031 C 53.552 207.031,54.870 206.117,54.537 205.249 C 51.681 197.806,53.669 175.490,58.245 163.623 C 59.818 159.547,59.335 158.702,56.181 160.011 M117.678 182.187 C 118.805 182.751,120.229 183.628,120.842 184.135 L 121.958 185.057 119.261 188.134 C 111.398 197.105,111.035 197.790,113.068 199.822 C 115.201 201.955,116.423 201.286,121.744 195.069 L 125.967 190.135 127.056 192.476 C 134.773 209.063,121.181 222.461,109.015 210.260 C 96.405 197.613,103.377 175.021,117.678 182.187 M240.199 206.209 C 246.446 208.153,251.653 213.801,252.685 219.751 C 254.734 231.569,252.155 239.248,244.484 244.171 C 240.382 246.803,239.746 246.875,220.495 246.875 L 203.169 246.875 202.561 246.007 C 202.030 245.249,201.953 242.624,201.953 225.304 L 201.953 205.469 219.887 205.469 C 236.391 205.469,238.011 205.528,240.199 206.209 M53.027 212.769 C 48.298 214.005,64.487 242.907,76.907 255.402 C 90.413 268.990,111.719 278.375,111.719 270.736 C 111.719 270.181,111.391 269.866,110.645 269.705 C 87.304 264.662,64.294 240.597,56.414 212.988 C 56.279 212.515,54.452 212.397,53.027 212.769 " stroke="none" fill="#14949c" fill-rule="evenodd"></path><path id="path2" d="" stroke="none" fill="#f07884" fill-rule="evenodd"></path><path id="path3" d="" stroke="none" fill="#4c7884" fill-rule="evenodd"></path><path id="path4" d="" stroke="none" fill="#149884" fill-rule="evenodd"></path></g></svg>