<?xml version="1.0" standalone="no"?>
<!DOCTYPE svg PUBLIC "-//W3C//DTD SVG 20010904//EN"
 "http://www.w3.org/TR/2001/REC-SVG-20010904/DTD/svg10.dtd">
<svg version="1.0" xmlns="http://www.w3.org/2000/svg"
 width="900.000000pt" height="900.000000pt" viewBox="0 0 900.000000 900.000000"
 preserveAspectRatio="xMidYMid meet">

<g transform="translate(0.000000,900.000000) scale(0.100000,-0.100000)"
fill="#000000" stroke="none">
<path d="M7600 6161 l0 -910 126 -3 c69 -2 128 -1 130 1 2 2 4 413 4 913 l0
908 -130 0 -130 0 0 -909z"/>
<path d="M7100 5915 l0 -665 130 0 130 0 0 665 0 665 -130 0 -130 0 0 -665z"/>
<path d="M1610 6234 c-477 -59 -857 -272 -1123 -629 -32 -43 -70 -102 -84
-130 -14 -27 -33 -61 -43 -75 -29 -44 -98 -223 -125 -325 -79 -305 -71 -671
21 -973 146 -478 550 -875 1045 -1026 100 -31 134 -33 125 -10 -3 9 -6 109 -6
223 l0 207 -82 33 c-108 44 -200 98 -290 169 -356 284 -506 773 -384 1255 132
517 576 847 1141 847 550 0 1002 -363 1128 -904 26 -113 30 -399 8 -511 -86
-430 -363 -745 -779 -885 l-87 -29 -3 -221 -2 -220 27 6 c216 49 308 81 463
160 453 232 757 665 830 1185 16 106 15 368 0 479 -84 612 -494 1111 -1065
1296 -185 60 -277 75 -490 79 -104 2 -206 1 -225 -1z"/>
<path d="M6610 5705 l0 -455 130 0 130 0 0 455 0 455 -130 0 -130 0 0 -455z"/>
<path d="M6320 5973 c-269 -175 -497 -470 -610 -788 -117 -332 -120 -783 -6
-1110 96 -277 226 -475 441 -673 248 -228 560 -360 932 -394 216 -20 484 10
689 78 118 38 327 143 429 215 103 74 270 236 335 327 285 396 383 869 279
1351 -28 128 -62 227 -121 351 -58 125 -91 178 -174 285 -103 133 -309 319
-429 387 -7 4 -10 -88 -9 -269 l2 -275 49 -67 c75 -99 107 -149 145 -226 136
-269 162 -655 66 -948 -122 -372 -435 -654 -832 -747 -188 -45 -391 -44 -574
1 -638 157 -997 793 -827 1464 41 164 126 332 233 461 l52 63 0 276 c0 151 -3
275 -7 274 -5 0 -33 -17 -63 -36z"/>
<path d="M4306 5730 c-154 -25 -296 -81 -402 -162 -116 -87 -221 -247 -258
-393 -14 -57 -38 -227 -32 -233 5 -4 170 -32 194 -32 18 0 22 6 22 30 0 61 32
187 66 258 93 193 283 306 539 319 382 20 635 -194 635 -536 -1 -228 -99 -407
-335 -608 -33 -28 -172 -135 -310 -239 -137 -103 -295 -222 -350 -264 -55 -42
-173 -131 -262 -199 l-163 -123 0 -94 0 -94 865 0 865 0 0 105 0 105 -675 2
-676 3 442 330 c452 337 571 437 659 554 203 266 236 648 80 924 -89 158 -257
277 -463 328 -94 23 -344 34 -441 19z"/>
<path d="M1580 3410 l0 -560 155 0 155 0 0 560 0 560 -155 0 -155 0 0 -560z"/>
</g>
</svg>
