<?xml version="1.0" encoding="utf-8"?>
<!-- Generator: Adobe Illustrator 23.0.1, SVG Export Plug-In . SVG Version: 6.00 Build 0)  -->
<svg version="1.1" id="Layer_1" xmlns="http://www.w3.org/2000/svg" xmlns:xlink="http://www.w3.org/1999/xlink" x="0px" y="0px"
	 viewBox="0 0 1000 1000" style="enable-background:new 0 0 1000 1000;" xml:space="preserve">
<style type="text/css">
	.st0{fill:#80C5E9;}
	.st1{fill:#45B5E1;}
	.st2{fill:#FFFFFF;}
	.st3{fill:#00B2E6;}
	.st4{fill:#00ACE5;}
	.st5{fill:#C7E3F5;}
	.st6{fill:#9CD5F4;}
	.st7{fill:#8ED1F3;}
	.st8{fill:#00ADE5;}
	.st9{fill:#00AAE6;}
	.st10{fill:#B4DBF2;}
	.st11{fill:#8FD1F4;}
	.st12{fill:#82CEF3;}
</style>
<g>
	<path class="st0" d="M499.9,0.5L65.2,248.3L258,359.8l241.8-138l241.8,138l193.1-111.5L499.9,0.5"/>
	<path class="st1" d="M934.2,747.7l-434.4,251l-434-251l-0.9,0.6l434.9,251.2l435.2-251.3L934.2,747.7"/>
	<path class="st2" d="M499.9,221.8l-242.1,138l242.1,140l242.4-140L499.9,221.8"/>
	<path class="st0" d="M935.1,248.3h-0.3l0.3,0.3L742.3,359.8v277.8l-0.6,0.3l192.5,109.8l0.9-0.3V248.3"/>
	<path class="st3" d="M934.8,248.3L741.7,359.8h0.6l192.8-111.2L934.8,248.3"/>
	<path class="st4" d="M741.7,637.9L499.9,777.6v221l434.3-251L741.7,637.9"/>
	<path class="st5" d="M742.3,359.8H742H742.3"/>
	<path class="st6" d="M742.3,359.8H742H742.3"/>
	<path class="st5" d="M742.3,359.8l-242.4,140v0.3l241.8,137.7l0.6-0.3V359.8"/>
	<path class="st7" d="M499.9,500.2v277.5l241.8-139.7L499.9,500.2"/>
	<path class="st2" d="M741.7,359.8L499.9,499.3v0.6l242.1-140L741.7,359.8"/>
	<path class="st1" d="M65,248.6v498.8l0.9,0.6l192.5-109.8l-0.6-0.3V359.8L65,248.6 M65,248.3v0.3V248.3"/>
	<path class="st8" d="M65.2,248.3l-0.3,0.3L258,359.8L65.2,248.3"/>
	<path class="st9" d="M499.9,500.2v277.5L258.3,637.9L65.8,747.7l434.1,250.9V500.2"/>
	<path class="st10" d="M257.7,359.8v277.8l0.6,0.3l241.5-137.7v-0.3L257.7,359.8"/>
	<path class="st11" d="M257.7,359.8"/>
	<path class="st12" d="M499.9,500.2L258.3,637.9l241.6,139.7V500.2"/>
	<path class="st2" d="M258,359.8h-0.3l242.1,140v-0.6L258,359.8"/>
</g>
</svg>
